<?xml version="1.0" encoding="UTF-8"?>
<svg version="1.1" xmlns="http://www.w3.org/2000/svg" width="542" height="461">
<path d="M0 0 C42.47275321 -0.04579845 84.94550357 -0.08102988 127.41827659 -0.10213066 C132.43493834 -0.10463201 137.45160004 -0.10722066 142.46826172 -0.10986328 C143.46696994 -0.1103879 144.46567817 -0.11091252 145.49465027 -0.11145304 C161.65610046 -0.12015073 177.81753639 -0.1359172 193.97897813 -0.15430559 C210.56761722 -0.17302234 227.15624886 -0.18412048 243.74489808 -0.18817699 C253.97727465 -0.19091836 264.20961092 -0.19957038 274.44197509 -0.21583293 C281.46294236 -0.22642172 288.48388886 -0.22959634 295.50486353 -0.22700275 C299.55286042 -0.22572442 303.60078697 -0.22765547 307.64877129 -0.23841095 C311.36138477 -0.24820288 315.07388117 -0.2485967 318.78650025 -0.24179779 C320.75201763 -0.24056368 322.7175338 -0.24913602 324.68303084 -0.25816262 C338.93460488 -0.21050582 350.08252937 1.24056693 360.75 11.1875 C371.29935198 22.28917407 372.30678104 34.94965372 372.22705078 49.60766602 C372.22643715 51.09058338 372.22670674 52.57350132 372.2277813 54.05641842 C372.22823029 58.00491491 372.21669199 61.95328861 372.20256042 65.90175629 C372.19111701 69.61545675 372.19063129 73.3291283 372.18920898 77.04284668 C372.17874071 87.88274719 372.1508182 98.72262518 372.125 109.5625 C372.08375 133.796875 372.0425 158.03125 372 183 C422.16 183 472.32 183 524 183 C526 187 526 187 525.09375 190.07421875 C524.5678125 191.26660156 524.041875 192.45898438 523.5 193.6875 C522.92518735 195.03249189 522.35369169 196.37890519 521.78515625 197.7265625 C521.33873779 198.7769873 521.33873779 198.7769873 520.88330078 199.84863281 C519.43599078 203.37370074 518.18527259 206.96291975 516.9375 210.5625 C516.6887915 211.2745459 516.44008301 211.9865918 516.18383789 212.72021484 C515.45376899 214.81274468 514.72667599 216.90628989 514 219 C511.31175788 226.71269465 508.51786091 234.32755103 505.328125 241.84765625 C503.78557986 245.5089325 502.2921195 249.18793838 500.8125 252.875 C500.32394531 254.08929688 499.83539063 255.30359375 499.33203125 256.5546875 C497.29772589 261.8164392 495.75102599 266.20126963 495.74171448 271.88652039 C495.73147247 273.61677711 495.73147247 273.61677711 495.72102356 275.38198853 C495.72357651 276.63353729 495.72612946 277.88508606 495.72875977 279.17456055 C495.72436844 280.51718968 495.71906481 281.85981609 495.71292114 283.20243835 C495.70144874 286.08670909 495.69596373 288.97090664 495.69503975 291.85519981 C495.69309211 296.42484021 495.67499933 300.99433038 495.65428162 305.56391907 C495.60518141 316.91685861 495.57426458 328.26983896 495.55297852 339.62286377 C495.53641448 348.44281456 495.51347818 357.26263622 495.46995777 366.08250076 C495.4482964 370.61554257 495.44011281 375.14833837 495.44235051 379.68142831 C495.44067151 382.51508264 495.42654807 385.34857941 495.40913773 388.18217659 C495.40096235 390.10155737 495.40742818 392.02098351 495.414505 393.94036865 C495.33793493 403.20706644 494.20538591 412.12085026 489.3125 420.1875 C488.87550781 420.92355469 488.43851562 421.65960938 487.98828125 422.41796875 C487.66214844 422.94003906 487.33601563 423.46210938 487 424 C486.34 424 485.68 424 485 424 C484.731875 424.639375 484.46375 425.27875 484.1875 425.9375 C483 428 483 428 480 429 C480 429.66 480 430.32 480 431 C478.28464956 431.98284944 476.55150293 432.9346336 474.8125 433.875 C473.84957031 434.40867187 472.88664062 434.94234375 471.89453125 435.4921875 C463.06920905 439.45217712 452.4262466 439.29573247 442.92552185 439.26742554 C441.21259409 439.27422221 441.21259409 439.27422221 439.46506172 439.28115618 C435.67775596 439.29371282 431.89059562 439.29218551 428.10327148 439.29052734 C425.37208523 439.29543688 422.64090887 439.30326893 419.909729 439.31088257 C413.28534581 439.32741152 406.66099822 439.33298831 400.03659611 439.33410732 C394.64941836 439.33506112 389.26225226 439.33918786 383.8750782 439.34550858 C368.57349575 439.3630944 353.27194122 439.37235095 337.97034859 439.37084763 C337.14747975 439.37076772 336.3246109 439.3706878 335.47680664 439.37060547 C334.65292436 439.37052371 333.82904209 439.37044195 332.98019368 439.37035771 C319.61953511 439.36954428 306.25898911 439.38870307 292.89836311 439.4168822 C279.15241475 439.44564366 265.40652127 439.45942089 251.66054207 439.45769465 C243.95400448 439.45703215 236.24758512 439.4624635 228.54107475 439.48405075 C221.98298842 439.502305 215.42507402 439.50657476 208.86697321 439.4930319 C205.52553638 439.486525 202.18469675 439.48849737 198.84324837 439.5037384 C195.21103898 439.51922915 191.57968613 439.50985633 187.94749451 439.49447632 C186.90574159 439.50476344 185.86398867 439.51505057 184.79066747 439.52564943 C172.49983284 439.41120054 161.91639664 435.30244114 152.84375 427.03515625 C143.15938405 417.04363691 141.2517633 406.17840764 141.34057617 392.68457031 C141.33210381 391.18526893 141.32145099 389.68597855 141.30880737 388.18670654 C141.28087834 384.15433171 141.28309362 380.12249274 141.29110122 376.0900507 C141.29424468 371.86193716 141.26913843 367.63398887 141.24714661 363.40594482 C141.20982195 355.41647172 141.1975655 347.42716878 141.1945222 339.43761706 C141.18981875 330.33464943 141.15685432 321.23185092 141.12162435 312.12895823 C141.04984191 293.41932171 141.01319745 274.70976502 141 256 C139.98015518 255.99191315 138.96031036 255.98382629 137.90956116 255.97549438 C128.27318178 255.89782847 118.63694004 255.81003836 109.000741 255.71247292 C104.04731581 255.66264172 99.0939106 255.61631098 94.14038086 255.578125 C89.3551474 255.54110518 84.57008659 255.49470093 79.78500175 255.44193649 C77.96430951 255.42348092 76.14358039 255.40834077 74.32283211 255.39665604 C71.762 255.37964132 69.20155572 255.3505716 66.64086914 255.31884766 C65.89711533 255.31668747 65.15336151 255.31452728 64.3870697 255.31230164 C54.44515386 255.156147 47.21420514 252.5340853 39 247 C38.113125 246.4225 37.22625 245.845 36.3125 245.25 C28.47293333 237.62231351 23.96338471 228.85757862 23.62818909 217.9002533 C23.61405434 215.54674431 23.61602509 213.19310274 23.63110352 210.83959961 C23.62532149 208.85568295 23.61953678 206.87176629 23.61365211 204.88784993 C23.61018362 202.77053106 23.61400312 200.65333655 23.61987495 198.53602409 C23.63154695 194.09916306 23.61921931 189.66255927 23.60325623 185.22572327 C23.56720362 174.20213351 23.56082006 163.17855067 23.56335449 152.15490723 C23.56507376 143.58945806 23.55770483 135.02422207 23.52337593 126.45883185 C23.50945083 122.77845344 23.50333335 119.09843243 23.51642036 115.41804314 C23.65941732 93.88680981 23.65941732 93.88680981 19 73 C18.49323936 71.19661578 17.99387059 69.39110519 17.5078125 67.58203125 C17.04964571 65.99138682 16.58870684 64.40153823 16.125 62.8125 C15.60537153 61.01304891 15.08584313 59.21356891 14.56640625 57.4140625 C14.30617676 56.5159082 14.04594727 55.61775391 13.77783203 54.69238281 C13.02173186 52.07522251 12.27290337 49.45611825 11.52734375 46.8359375 C11.28564453 45.98684814 11.04394531 45.13775879 10.79492188 44.26293945 C10.3072519 42.54812925 9.82027092 40.83312295 9.33398438 39.11791992 C7.95175605 34.2624348 6.52958885 29.42159786 5.06640625 24.58984375 C4.74341553 23.51323486 4.4204248 22.43662598 4.08764648 21.32739258 C3.46100944 19.24278741 2.82679057 17.16044141 2.18383789 15.08081055 C1.89887451 14.12859619 1.61391113 13.17638184 1.3203125 12.1953125 C1.06523926 11.36016113 0.81016602 10.52500977 0.54736328 9.66455078 C-0.12212284 6.40550907 -0.03406761 3.31957093 0 0 Z " fill="#EBE3D8" transform="translate(9,18)"/>
<path d="M0 0 C42.47275321 -0.04579845 84.94550357 -0.08102988 127.41827659 -0.10213066 C132.43493834 -0.10463201 137.45160004 -0.10722066 142.46826172 -0.10986328 C143.46696994 -0.1103879 144.46567817 -0.11091252 145.49465027 -0.11145304 C161.65610046 -0.12015073 177.81753639 -0.1359172 193.97897813 -0.15430559 C210.56761722 -0.17302234 227.15624886 -0.18412048 243.74489808 -0.18817699 C253.97727465 -0.19091836 264.20961092 -0.19957038 274.44197509 -0.21583293 C281.46294236 -0.22642172 288.48388886 -0.22959634 295.50486353 -0.22700275 C299.55286042 -0.22572442 303.60078697 -0.22765547 307.64877129 -0.23841095 C311.36138477 -0.24820288 315.07388117 -0.2485967 318.78650025 -0.24179779 C320.75201763 -0.24056368 322.7175338 -0.24913602 324.68303084 -0.25816262 C338.93460488 -0.21050582 350.08252937 1.24056693 360.75 11.1875 C371.32558288 22.31677832 372.30661373 35.00800948 372.22705078 49.69946289 C372.22648573 51.16875196 372.22680506 52.63804158 372.22793579 54.10733032 C372.22850664 58.07159722 372.21679593 62.03574163 372.20278788 65.99998021 C372.19023566 70.15195285 372.18910649 74.30392868 372.18673706 78.45591736 C372.18053544 86.30736449 372.16414256 94.15875553 372.14403808 102.01017803 C372.12163794 110.95337677 372.11067532 119.89657826 372.10064721 128.83979809 C372.07977509 147.22656379 372.04462488 165.61327738 372 184 C370.98877893 184.00238835 369.97755787 184.00477671 368.93569374 184.00723743 C344.31377379 184.06607034 319.6919514 184.14197668 295.07013893 184.23571491 C283.163142 184.28065233 271.25617483 184.3200718 259.34912109 184.34643555 C248.969161 184.36943218 238.58929529 184.40284897 228.20941007 184.44870156 C222.71495697 184.47261117 217.22059721 184.49135482 211.72609329 184.49761391 C206.55014065 184.50367492 201.37442677 184.52371174 196.19856262 184.55427551 C194.30318741 184.56303941 192.40778097 184.56678175 190.51238632 184.56500816 C176.9763474 184.47097191 176.9763474 184.47097191 164 188 C162.453125 188.5878125 162.453125 188.5878125 160.875 189.1875 C159.946875 189.5896875 159.946875 189.5896875 159 190 C159 190.66 159 191.32 159 192 C158.24976563 192.43828125 157.49953125 192.8765625 156.7265625 193.328125 C153.72060913 195.17131704 152.34588094 196.85217506 150.375 199.75 C149.80523437 200.56984375 149.23546875 201.3896875 148.6484375 202.234375 C144.56913787 209.07831845 143.54395307 214.20993458 143.48828125 222.08984375 C143.47033005 223.03436905 143.45237885 223.97889435 143.43388367 224.95204163 C143.38001844 227.94715 143.34596142 230.94210119 143.3125 233.9375 C143.27930593 235.9772353 143.24481435 238.01694992 143.20898438 240.05664062 C143.12430565 245.03764657 143.05738128 250.01860783 143 255 C132.07283109 255.04644459 121.14568586 255.08193069 110.21843815 255.10362434 C105.14388085 255.11403886 100.06939134 255.12815535 94.99487305 255.15087891 C90.09303055 255.17269059 85.19125307 255.18458615 80.28936577 255.18975449 C78.42397476 255.19343533 76.55858711 255.20062295 74.69322395 255.21146011 C72.07022681 255.22608581 69.44749457 255.22797334 66.82446289 255.22705078 C66.0620076 255.23424133 65.29955231 255.24143188 64.51399231 255.24884033 C54.50443812 255.21101667 47.26154152 252.56597683 39 247 C38.113125 246.4225 37.22625 245.845 36.3125 245.25 C28.47293333 237.62231351 23.96338471 228.85757862 23.62818909 217.9002533 C23.61405434 215.54674431 23.61602509 213.19310274 23.63110352 210.83959961 C23.62532149 208.85568295 23.61953678 206.87176629 23.61365211 204.88784993 C23.61018362 202.77053106 23.61400312 200.65333655 23.61987495 198.53602409 C23.63154695 194.09916306 23.61921931 189.66255927 23.60325623 185.22572327 C23.56720362 174.20213351 23.56082006 163.17855067 23.56335449 152.15490723 C23.56507376 143.58945806 23.55770483 135.02422207 23.52337593 126.45883185 C23.50945083 122.77845344 23.50333335 119.09843243 23.51642036 115.41804314 C23.65941732 93.88680981 23.65941732 93.88680981 19 73 C18.49323936 71.19661578 17.99387059 69.39110519 17.5078125 67.58203125 C17.04964571 65.99138682 16.58870684 64.40153823 16.125 62.8125 C15.60537153 61.01304891 15.08584313 59.21356891 14.56640625 57.4140625 C14.30617676 56.5159082 14.04594727 55.61775391 13.77783203 54.69238281 C13.02173186 52.07522251 12.27290337 49.45611825 11.52734375 46.8359375 C11.28564453 45.98684814 11.04394531 45.13775879 10.79492188 44.26293945 C10.3072519 42.54812925 9.82027092 40.83312295 9.33398438 39.11791992 C7.95175605 34.2624348 6.52958885 29.42159786 5.06640625 24.58984375 C4.74341553 23.51323486 4.4204248 22.43662598 4.08764648 21.32739258 C3.46100944 19.24278741 2.82679057 17.16044141 2.18383789 15.08081055 C1.89887451 14.12859619 1.61391113 13.17638184 1.3203125 12.1953125 C1.06523926 11.36016113 0.81016602 10.52500977 0.54736328 9.66455078 C-0.12212284 6.40550907 -0.03406761 3.31957093 0 0 Z " fill="#282626" transform="translate(9,18)"/>
<path d="M0 0 C1.22203125 -0.00257813 2.4440625 -0.00515625 3.703125 -0.0078125 C6.75 0.125 6.75 0.125 8.75 1.125 C8.75 1.785 8.75 2.445 8.75 3.125 C9.471875 3.351875 10.19375 3.57875 10.9375 3.8125 C18.43596322 7.31178284 23.20101076 15.2397605 26.171875 22.69140625 C31.6656272 38.22730939 33.0012641 53.42512 33.0625 69.8125 C33.06578308 70.53278381 33.06906616 71.25306763 33.07244873 71.99517822 C33.11878341 103.57182489 33.11878341 103.57182489 26.75 113.125 C26.481875 114.15625 26.21375 115.1875 25.9375 116.25 C23.77269934 124.15984857 18.9123775 131.72085687 12.75 137.125 C10.53515625 137.84375 10.53515625 137.84375 8.75 138.125 C8.75 138.785 8.75 139.445 8.75 140.125 C2.0149112 142.41779619 -3.91003694 143.12112933 -10.8125 141.0625 C-23.10619577 134.13332602 -29.15846528 123.31692333 -33.25 110.125 C-36.45080406 97.02959419 -37.45733488 84.50454121 -37.4375 71.0625 C-37.43722809 70.37313354 -37.43695618 69.68376709 -37.43667603 68.97351074 C-37.41101158 54.84862324 -36.52984659 41.67784753 -32.25 28.125 C-32.03601563 27.34769531 -31.82203125 26.57039063 -31.6015625 25.76953125 C-29.8511895 19.78737413 -26.92473995 15.12537558 -23.25 10.125 C-22.59 9.196875 -21.93 8.26875 -21.25 7.3125 C-15.05006783 0.53132419 -8.77842961 -0.01867751 0 0 Z " fill="#070606" transform="translate(279.25,253.875)"/>
<path d="M0 0 C4.05269518 -0.05017623 8.10526519 -0.08607843 12.15820312 -0.10986328 C13.53128212 -0.11979919 14.90434067 -0.13335261 16.27734375 -0.15087891 C30.26381638 -0.32468741 44.51469629 -0.25261714 55.13671875 10.078125 C63.3897904 19.97489016 64.09040113 30.57890889 63 43 C62.41681541 46.30019188 61.53845152 49.02984665 60 52 C59.69449219 52.62003906 59.38898438 53.24007812 59.07421875 53.87890625 C55.65576432 59.63434043 50.1197251 62.64442311 44 65 C40.31630801 65.69211518 36.74521279 65.98551175 33 66 C33 66.66 33 67.32 33 68 C33.73605469 68.03738281 34.47210938 68.07476562 35.23046875 68.11328125 C42.52607768 68.60479519 46.83690387 69.44552565 51.8125 75 C54 78 54 78 54 81 C54.66 81 55.32 81 56 81 C56.07516846 81.78125244 56.15033691 82.56250488 56.2277832 83.36743164 C56.57761617 86.93371823 56.94489414 90.49800338 57.3125 94.0625 C57.48942383 95.90618164 57.48942383 95.90618164 57.66992188 97.78710938 C58.33008456 104.06711846 59.02572313 109.39302988 62 115 C66.12973628 114.43260132 66.12973628 114.43260132 70 113 C70.1748936 116.39517814 70.28103765 119.78919487 70.375 123.1875 C70.42527344 124.14720703 70.47554688 125.10691406 70.52734375 126.09570312 C70.67004068 132.96893867 70.67004068 132.96893867 68.84863281 135.77172852 C64.48495153 139.76180695 60.41018714 139.66404444 54.84765625 139.4296875 C51.06256308 138.85854861 48.83342351 137.54281597 46 135 C45.50886719 134.59007812 45.01773438 134.18015625 44.51171875 133.7578125 C37.53650376 125.64709739 37.58893043 113.21466711 37.37792969 103.16186523 C37.15650652 95.11845835 36.13510372 87.48100612 33 80 C32.01 79.34 31.02 78.68 30 78 C30 77.34 30 76.68 30 76 C27.03 76 24.06 76 21 76 C21.09378385 82.85041497 21.19993413 89.70048692 21.31738281 96.55053711 C21.35558779 98.87926024 21.39045526 101.20804067 21.421875 103.53686523 C21.46770962 106.8906701 21.52567425 110.24408335 21.5859375 113.59765625 C21.59748871 114.63334244 21.60903992 115.66902863 21.62094116 116.73609924 C21.73255825 122.24394711 22.35349184 126.76047266 24 132 C24 133.65 24 135.3 24 137 C15.75 137 7.5 137 -1 137 C-0.83701416 134.60314941 -0.67402832 132.20629883 -0.50610352 129.73681641 C0.25805828 116.90425237 0.12462046 104.06084335 0.09765625 91.2109375 C0.09578705 88.56865465 0.09436553 85.92637145 0.09336853 83.28408813 C0.09028931 77.09042622 0.08212306 70.89678246 0.07201904 64.70312846 C0.06075052 57.63876093 0.0553207 50.57439242 0.05032361 43.51001811 C0.03993664 29.00666948 0.02240494 14.503335 0 0 Z " fill="#050404" transform="translate(322,257)"/>
<path d="M0 0 C11.22 0 22.44 0 34 0 C34.0825 3.073125 34.165 6.14625 34.25 9.3125 C34.77744765 22.70459866 36.78014115 35.79825198 39 49 C39.20705566 50.23314941 39.41411133 51.46629883 39.62744141 52.73681641 C40.26152645 56.47237296 40.90803618 60.20546241 41.5625 63.9375 C41.76004883 65.06752441 41.95759766 66.19754883 42.16113281 67.36181641 C43.31168702 73.7486243 44.68592534 80.02227517 46.34399414 86.29711914 C47.00553688 89.02281309 47.46903407 91.72572508 47.875 94.5 C48.76224769 100.14408827 50.0576478 105.64772439 51.4375 111.1875 C51.64294434 112.01894531 51.84838867 112.85039062 52.06005859 113.70703125 C54.36443858 123.14549638 54.36443858 123.14549638 58.09155273 132.07104492 C59 134 59 134 59 137 C49.43 137 39.86 137 30 137 C29.80083984 133.11541016 29.80083984 133.11541016 29.59765625 129.15234375 C29.46600737 126.62699408 29.33327481 124.10170352 29.20043945 121.57641602 C29.10913798 119.82973004 29.01895223 118.08298535 28.92993164 116.33618164 C28.80132023 113.81640388 28.66861545 111.29686885 28.53515625 108.77734375 C28.49656998 108.00414291 28.4579837 107.23094208 28.41822815 106.43431091 C28.35827919 105.32395226 28.35827919 105.32395226 28.29711914 104.19116211 C28.26380997 103.54940536 28.23050079 102.90764862 28.19618225 102.2464447 C27.925804 99.15039611 27.43951385 96.07659696 27 93 C20.07 93 13.14 93 6 93 C5.7834375 96.2175 5.7834375 96.2175 5.5625 99.5 C5.30842955 103.274761 5.00010494 106.99921296 4.5 110.75 C3.81938624 115.98138422 3.64855925 121.23259229 3.4375 126.5 C3.293125 129.965 3.14875 133.43 3 137 C-6.24 137 -15.48 137 -25 137 C-23.88906498 130.33438986 -23.88906498 130.33438986 -22.65625 126.93359375 C-17.85976681 113.00691168 -14.24526509 98.35609721 -12.0625 83.78955078 C-10.9391023 76.29395364 -9.4165575 68.88861924 -7.88818359 61.46630859 C-7.24396067 58.31360705 -6.61722097 55.15810255 -6 52 C-5.74758545 50.70989014 -5.4951709 49.41978027 -5.23510742 48.09057617 C-3.24293612 37.57350771 -2.13716558 27.10368866 -1.3125 16.4375 C-0.879375 11.013125 -0.44625 5.58875 0 0 Z " fill="#070606" transform="translate(421,257)"/>
<path d="M0 0 C6.6 0 13.2 0 20 0 C20.65104167 2.27864583 21.30208333 4.55729167 21.953125 6.8359375 C22.83148555 9.49068394 23.80682908 12.03113705 24.86328125 14.6171875 C27.14445294 20.24827293 29.0528646 25.97625079 30.9375 31.75 C33.52594125 39.61852344 36.1789275 47.4394475 39.08984375 55.1953125 C40.03915591 58.12066071 40.571261 60.9582096 41 64 C41.66 64 42.32 64 43 64 C42.93016757 58.45353004 42.84176702 52.90774702 42.73754883 47.36181641 C42.70468529 45.48266347 42.67653918 43.60342094 42.65356445 41.72412109 C42.51933538 31.02577875 41.98541893 20.88578003 39.63208008 10.42773438 C39 7 39 7 39 0 C46.92 0 54.84 0 63 0 C62.05933979 12.49734277 62.05933979 12.49734277 61.76147461 15.02050781 C60.62624065 25.25987291 60.76819254 35.56684658 60.68359375 45.85546875 C60.66299056 47.96967443 60.64199328 50.0838763 60.62062073 52.19807434 C60.56574723 57.72991835 60.5161866 63.26179736 60.46777344 68.79370117 C60.41730291 74.45169139 60.36175098 80.10963154 60.30664062 85.76757812 C60.19948455 96.84500919 60.09794727 107.92248395 60 119 C54.72 119 49.44 119 44 119 C40.91015956 110.91887886 38.12706093 102.73619717 35.31640625 94.5546875 C34.93355469 93.44351563 34.55070312 92.33234375 34.15625 91.1875 C33.78886719 90.12015625 33.42148437 89.0528125 33.04296875 87.953125 C32.15001559 85.42476324 31.20245505 82.93140012 30.21875 80.4375 C29 77 29 77 29 73 C28.34 73 27.68 73 27 73 C24.525 65.08 24.525 65.08 22 57 C21.9498791 63.09740047 21.91394601 69.19467624 21.89013672 75.29223633 C21.88019195 77.35866388 21.86663137 79.42507779 21.84912109 81.49145508 C21.7442818 94.19859434 22.22223377 106.4086557 24 119 C16.08 119 8.16 119 0 119 C0 110.058074 0 110.058074 0.42871094 106.96875 C2.25431042 92.41346194 2.3085272 77.88974619 2.26074219 63.24609375 C2.24934844 59.70996384 2.25610768 56.17413531 2.26764679 52.63801575 C2.3060532 38.66506554 2.16262013 24.82054106 0.42871094 10.93359375 C0 7 0 7 0 0 Z " fill="#E9E1D7" transform="translate(228,69)"/>
<path d="M0 0 C0.67740234 -0.01160156 1.35480469 -0.02320313 2.05273438 -0.03515625 C7.44708779 -0.00412449 9.72392445 1.08703905 15.0625 3.375 C15.0625 11.625 15.0625 19.875 15.0625 28.375 C12.0925 26.725 9.1225 25.075 6.0625 23.375 C1.41181322 22.67035049 -1.70229629 22.87898199 -5.6875 25.3125 C-14.44936308 32.48129706 -15.50882973 46.78182986 -16.74780273 57.2746582 C-17.08380828 60.99493577 -17.12885382 64.7039195 -17.125 68.4375 C-17.12419434 69.26314453 -17.12338867 70.08878906 -17.12255859 70.93945312 C-17.04773486 78.55093373 -16.17676607 85.86085857 -14.9375 93.375 C-14.81632812 94.37144531 -14.69515625 95.36789062 -14.5703125 96.39453125 C-13.61707439 103.34927869 -11.34391397 108.85905733 -6.9375 114.375 C-2.09251944 118.03565198 2.20163621 117.92201395 8.0625 117.375 C11.0325 116.055 14.0025 114.735 17.0625 113.375 C17.0625 120.965 17.0625 128.555 17.0625 136.375 C9.79656052 139.60430644 6.15201303 140.98696419 -1.25 140.75 C-2.03439453 140.74871094 -2.81878906 140.74742187 -3.62695312 140.74609375 C-7.51847176 140.6865803 -10.59925598 140.61242897 -13.9375 138.375 C-13.9375 137.715 -13.9375 137.055 -13.9375 136.375 C-14.494375 136.2925 -15.05125 136.21 -15.625 136.125 C-20.63711629 134.49944877 -23.99487745 130.59275899 -26.9375 126.375 C-27.69734087 124.75620859 -28.44577678 123.12917654 -29.08984375 121.4609375 C-29.92435828 119.31107667 -29.92435828 119.31107667 -31.12890625 117.1015625 C-42.96948201 92.99627095 -40.85475752 55.9371278 -33.90625 30.6171875 C-30.10971967 19.76629339 -24.11661338 9.23863375 -13.9375 3.375 C-13.03128906 2.83746094 -12.12507813 2.29992187 -11.19140625 1.74609375 C-7.37445075 0.13774875 -4.06875022 -0.06928808 0 0 Z " fill="#050404" transform="translate(216.9375,254.625)"/>
<path d="M0 0 C7.59 0 15.18 0 23 0 C23.24234375 1.78664063 23.4846875 3.57328125 23.734375 5.4140625 C26.00731652 22.21775187 26.00731652 22.21775187 30.265625 38.59375 C31 41 31 41 31 44 C31.99 44 32.98 44 34 44 C34.185625 42.7315625 34.185625 42.7315625 34.375 41.4375 C35 38 35 38 35.95849609 34.75170898 C36.99589083 31.01480208 37.68526304 27.36451596 38.2890625 23.53515625 C38.39721283 22.85698349 38.50536316 22.17881073 38.61679077 21.48008728 C38.95689835 19.34150775 39.29104991 17.20204876 39.625 15.0625 C39.85637545 13.60084881 40.0881427 12.1392596 40.3203125 10.67773438 C40.88546656 7.11928222 41.44253378 3.55969842 42 0 C49.59 0 57.18 0 65 0 C61.69784173 11.00719424 61.69784173 11.00719424 59.5 16.375 C57.43538383 21.62308123 55.9562431 26.81446082 54.6796875 32.30078125 C54.09202143 34.63455856 53.39189521 36.77026198 52.5 39 C50.88302937 43.06743128 49.92366873 47.22056065 48.92993164 51.47753906 C48.1312047 54.50301356 47.16010356 57.39055985 46.10072327 60.331604 C42.97686894 69.28289123 42.30875294 77.49828197 42.51293945 86.92871094 C42.56277571 89.26291364 42.57446823 91.59499725 42.58007812 93.9296875 C42.59415759 95.45835514 42.61035966 96.98700503 42.62890625 98.515625 C42.63426895 99.19095276 42.63963165 99.86628052 42.64515686 100.56207275 C42.79827756 106.96179461 43.91443643 112.48661861 45 119 C36.75 119 28.5 119 20 119 C20 111.27166592 20 111.27166592 20.95703125 107.875 C26.10718344 86.15738047 20.53217837 65.16441406 14.09130859 44.52246094 C10 31.31677852 10 31.31677852 10 27 C9.34 27 8.68 27 8 27 C7.89042969 26.43152344 7.78085938 25.86304687 7.66796875 25.27734375 C6.62387599 20.19269689 5.15079965 15.74968257 3 11 C1.66047037 7.27908435 0.78158929 3.90794646 0 0 Z " fill="#E8E1D7" transform="translate(157,69)"/>
<path d="M0 0 C0.99 0.66 1.98 1.32 3 2 C3.34057617 3.97119141 3.34057617 3.97119141 3.29296875 6.3515625 C3.2784668 7.62773438 3.2784668 7.62773438 3.26367188 8.9296875 C3.23853516 9.81914063 3.21339844 10.70859375 3.1875 11.625 C3.16719727 12.97078125 3.16719727 12.97078125 3.14648438 14.34375 C3.11106925 16.56309789 3.06168461 18.78125188 3 21 C2.01 21 1.02 21 0 21 C-1.33333333 19.66666667 -2.66666667 18.33333333 -4 17 C-8.13431508 14.70315829 -12.36111204 14.40084813 -17 15 C-21.0226217 16.56435288 -22.59149109 17.38723663 -25 21 C-25.87967826 28.16309438 -23.91665927 33.01926976 -20 39 C-17.37060339 42.3127897 -14.63829029 45.50796324 -11.85546875 48.69140625 C-5.69231933 55.76084004 0.5476626 63.19479603 4 72 C4.44472656 73.11568359 4.44472656 73.11568359 4.8984375 74.25390625 C8.3459254 84.10613086 8.2213529 93.99248789 4.18359375 103.6328125 C0.49412695 111.01174609 -6.10971901 115.9591765 -13.8828125 118.65234375 C-23.94214142 120.30415237 -31.67208812 119.36776652 -40.1640625 114 C-42.17288116 112.30206994 -42.91038698 111.40538575 -43.48339844 108.81323242 C-43.5904607 106.24705188 -43.52412909 103.75137324 -43.375 101.1875 C-43.34792969 100.30384766 -43.32085937 99.42019531 -43.29296875 98.50976562 C-43.22255869 96.33878886 -43.11494606 94.16907471 -43 92 C-39.46422101 93.74000335 -36.2091463 95.73995719 -32.90234375 97.87890625 C-28.82182726 100.28364595 -24.62650521 100.56078851 -20 100 C-17.65738392 98.62073227 -17.65738392 98.62073227 -16 97 C-15.34 97 -14.68 97 -14 97 C-11.58033382 89.74100145 -13.03129824 82.80480198 -16 76 C-18.33790932 71.59450213 -21.40592556 68.0852301 -24.6875 64.375 C-37.22978072 49.91189784 -45.33921577 37.75343265 -44 18 C-42.22267181 9.92361162 -37.61642272 3.72601623 -31 -1 C-28.125 -1.8125 -28.125 -1.8125 -26 -2 C-26 -2.66 -26 -3.32 -26 -4 C-16.35775411 -6.72935963 -8.59371549 -4.79041573 0 0 Z " fill="#E7DFD5" transform="translate(148,71)"/>
<path d="M0 0 C9.49744442 8.5929259 11.07907758 22.87179689 12 35 C14.49868923 86.83973088 14.49868923 86.83973088 4 101 C1.86816406 102.21948242 1.86816406 102.21948242 0 103 C0 103.66 0 104.32 0 105 C-4.39362393 104.82770102 -6.41723561 104.57663003 -9.59765625 101.4296875 C-12.2517161 98.02621628 -13.34760891 94.42355878 -14.25 90.25 C-14.48976563 89.27160156 -14.48976563 89.27160156 -14.734375 88.2734375 C-17.3019876 77.27549687 -17.1863329 66.15357659 -17.18530273 54.92480469 C-17.18748356 52.27001769 -17.20567524 49.61565104 -17.22460938 46.9609375 C-17.25685097 37.10099573 -16.76883941 27.72485328 -15 18 C-14.8443457 17.09362793 -14.68869141 16.18725586 -14.52832031 15.25341797 C-13.65273923 10.36140019 -12.12275489 6.97441532 -9 3 C-8.54625 2.38125 -8.0925 1.7625 -7.625 1.125 C-4.92875057 -0.74163422 -3.17976588 -0.57235786 0 0 Z " fill="#E8E1D6" transform="translate(280,272)"/>
<path d="M0 0 C9.10526316 0 9.10526316 0 13 2 C14.2684375 2.5878125 14.2684375 2.5878125 15.5625 3.1875 C18.88772596 5.66010392 20.74401684 8.0984353 22 12 C23.0476427 19.52750682 22.59545609 25.84608851 18.4453125 32.3203125 C16.55947048 34.51196674 14.82762827 35.43447435 12 36 C12 36.66 12 37.32 12 38 C7.7345163 39.03405665 4.62683027 39 0 39 C0 26.13 0 13.26 0 0 Z " fill="#E3DCD3" transform="translate(343,276)"/>
<path d="M0 0 C0.66 0 1.32 0 2 0 C2.12117188 1.11375 2.24234375 2.2275 2.3671875 3.375 C2.90074254 8.25121976 3.44738595 13.12590587 4 18 C4.08540039 18.75700195 4.17080078 19.51400391 4.25878906 20.29394531 C5.09917388 27.65967104 6.03424463 34.83903401 8 42 C8 42.99 8 43.98 8 45 C3.38 45 -1.24 45 -6 45 C-5.32370693 36.82108063 -4.36699626 28.70546363 -3.27050781 20.57250977 C-2.9971905 18.54162403 -2.72886266 16.51011901 -2.4609375 14.47851562 C-2.28820312 13.18751953 -2.11546875 11.89652344 -1.9375 10.56640625 C-1.70353516 8.81759155 -1.70353516 8.81759155 -1.46484375 7.03344727 C-1.09612979 4.62731758 -0.65026982 2.34176262 0 0 Z " fill="#E1DBD2" transform="translate(437,288)"/>
<path d="M0 0 C0.33 0 0.66 0 1 0 C1.04673551 17.88933068 1.08199645 35.77864551 1.10362434 53.66802406 C1.11393378 61.97450426 1.12798777 70.28094651 1.15087891 78.58740234 C1.17082295 85.8279089 1.18371886 93.06838796 1.18817699 100.30892122 C1.19078265 104.1421762 1.19690018 107.97535254 1.21146011 111.80858231 C1.22506005 115.41840233 1.22921777 119.0281115 1.22621536 122.63795471 C1.22702576 124.59059057 1.23777478 126.54321442 1.24884033 128.49581909 C1.246091 129.66522034 1.24334167 130.83462158 1.24050903 132.03945923 C1.24235262 133.05158792 1.24419621 134.06371662 1.24609566 135.10651588 C0.9728857 138.31879803 0.12833003 140.99010682 -1 144 C-1.33 144 -1.66 144 -2 144 C-1.89279365 125.81530986 -1.78003812 107.63066303 -1.66066074 89.44604874 C-1.6053625 81.00278352 -1.55188607 72.55951407 -1.50268555 64.11621094 C-1.45980209 56.75777048 -1.41351358 49.39936071 -1.36312145 42.0409677 C-1.33655406 38.14410481 -1.31170182 34.24724786 -1.29092598 30.35034943 C-1.27132057 26.68307377 -1.24716516 23.01585633 -1.21950912 19.34863281 C-1.20569864 17.35986294 -1.19672233 15.37106135 -1.18788147 13.38226318 C-1.17809265 12.19878296 -1.16830383 11.01530273 -1.15821838 9.79595947 C-1.15176583 8.7672385 -1.14531328 7.73851753 -1.1386652 6.6786232 C-1.01527943 4.29515588 -0.6817219 2.27803694 0 0 Z " fill="#E5D8CF" transform="translate(503,284)"/>
<path d="M0 0 C0.66 0.99 1.32 1.98 2 3 C1.67 3.33 1.34 3.66 1 4 C1.99 4.99 2.98 5.98 4 7 C3.34 7.66 2.68 8.32 2 9 C2.33 9.66 2.66 10.32 3 11 C2.34 11.66 1.68 12.32 1 13 C0.48953125 12.37609375 -0.0209375 11.7521875 -0.546875 11.109375 C-3.68812123 8.4083034 -6.20113042 7.99979066 -10.25 7.25 C-11.51328125 7.00765625 -12.7765625 6.7653125 -14.078125 6.515625 C-15.04234375 6.34546875 -16.0065625 6.1753125 -17 6 C-17 5.34 -17 4.68 -17 4 C-16.10796875 3.79503906 -15.2159375 3.59007812 -14.296875 3.37890625 C-13.12640625 3.10949219 -11.9559375 2.84007812 -10.75 2.5625 C-9.58984375 2.29566406 -8.4296875 2.02882813 -7.234375 1.75390625 C-4.81650239 1.19032 -2.40556696 0.61330049 0 0 Z " fill="#DDD5CD" transform="translate(372,319)"/>
<path d="M0 0 C16.5 0 33 0 50 0 C50 0.99 50 1.98 50 3 C44.00418894 2.88132774 38.00852933 2.75705217 32.01293945 2.62768555 C29.97521077 2.58449482 27.93744959 2.54280922 25.8996582 2.50268555 C22.96295396 2.44459689 20.02641091 2.38101552 17.08984375 2.31640625 C15.73317848 2.29133751 15.73317848 2.29133751 14.34910583 2.26576233 C9.48003879 2.15288608 4.80484165 1.80414562 0 1 C0 0.67 0 0.34 0 0 Z " fill="#211D1E" transform="translate(297,19)"/>
<path d="M0 0 C0.66 0 1.32 0 2 0 C2.33 6.6 2.66 13.2 3 20 C3.99 19.67 4.98 19.34 6 19 C5.9375 22.25 5.9375 22.25 5 26 C2.75748181 28.05227885 0.88577645 28.80588561 -2 30 C-2.99 29.67 -3.98 29.34 -5 29 C-5.33 29.66 -5.66 30.32 -6 31 C-6 30.01 -6 29.02 -6 28 C-8.64 28 -11.28 28 -14 28 C-14 27.67 -14 27.34 -14 27 C-13.40832031 26.97421875 -12.81664062 26.9484375 -12.20703125 26.921875 C-11.41683594 26.86515625 -10.62664062 26.8084375 -9.8125 26.75 C-8.64654297 26.68039062 -8.64654297 26.68039062 -7.45703125 26.609375 C-3.86839528 25.71934764 -2.40128046 24.87477239 0 22 C0.6205733 18.23423962 0.46935826 14.55320958 0.3125 10.75 C0.28994141 9.71875 0.26738281 8.6875 0.24414062 7.625 C0.18527163 5.08185935 0.10310065 2.54166887 0 0 Z " fill="#D3CEC7" transform="translate(391,369)"/>
<path d="M0 0 C1.21114078 3.63342235 0.68698252 4.63504969 -0.5625 8.1875 C-0.92988281 9.23808594 -1.29726563 10.28867188 -1.67578125 11.37109375 C-4.06996547 17.93214726 -6.51503351 24.47282135 -9 31 C-9.66 31 -10.32 31 -11 31 C-9.70545622 19.92602225 -5.27624786 9.74421945 0 0 Z " fill="#E0D9D2" transform="translate(530,211)"/>
<path d="M0 0 C0.33 0 0.66 0 1 0 C1 6.27 1 12.54 1 19 C-2 19 -2 19 -4.25 17.25 C-6 15 -6 15 -5.875 12.875 C-5 11 -5 11 -3 9 C-2.01 9 -1.02 9 0 9 C0 6.03 0 3.06 0 0 Z " fill="#C8C3BE" transform="translate(150,73)"/>
<path d="M0 0 C0.66 0 1.32 0 2 0 C2.0825 0.61875 2.165 1.2375 2.25 1.875 C2.78570011 4.11681553 2.78570011 4.11681553 4.6875 5 C5.450625 5.33 6.21375 5.66 7 6 C7.845625 6.61875 8.69125 7.2375 9.5625 7.875 C13.92687791 10.87480497 19.0163649 12.33287651 24 14 C24 14.66 24 15.32 24 16 C14.76469516 14.03210327 6.05770432 10.63797501 0 3 C0 2.01 0 1.02 0 0 Z " fill="#E3D9D2" transform="translate(160,440)"/>
<path d="M0 0 C0.33 0 0.66 0 1 0 C1.1748936 3.39517814 1.28103765 6.78919487 1.375 10.1875 C1.45041016 11.62706055 1.45041016 11.62706055 1.52734375 13.09570312 C1.66969649 19.95236025 1.66969649 19.95236025 -0.13818359 22.78051758 C-2.66345203 25.11711653 -4.84385079 25.97625468 -8.2109375 26.48828125 C-9.77714844 26.40126953 -9.77714844 26.40126953 -11.375 26.3125 C-12.96441406 26.24482422 -12.96441406 26.24482422 -14.5859375 26.17578125 C-15.38257813 26.11777344 -16.17921875 26.05976563 -17 26 C-17 25.67 -17 25.34 -17 25 C-16.33613281 24.98582031 -15.67226563 24.97164063 -14.98828125 24.95703125 C-8.97837196 24.64634071 -8.97837196 24.64634071 -3.9375 21.5 C-3.298125 20.675 -2.65875 19.85 -2 19 C-1.67 18.67 -1.34 18.34 -1 18 C-0.95304951 15.15949508 -0.95413266 12.33918827 -1 9.5 C-1.04586734 6.66081173 -1.04695049 3.84050492 -1 1 C-0.67 0.67 -0.34 0.34 0 0 Z " fill="#292622" transform="translate(391,370)"/>
<path d="M0 0 C0.33 0 0.66 0 1 0 C1.66 5.61 2.32 11.22 3 17 C-4.92 17 -12.84 17 -21 17 C-21 16.67 -21 16.34 -21 16 C-10.605 15.505 -10.605 15.505 0 15 C-0.33 13.35 -0.66 11.7 -1 10 C-1.43659711 2.87319422 -1.43659711 2.87319422 0 0 Z " fill="#D3CDC7" transform="translate(249,171)"/>
<path d="M0 0 C0 7.59 0 15.18 0 23 C-0.33 23 -0.66 23 -1 23 C-1.33 17.39 -1.66 11.78 -2 6 C-5 4.66666667 -5 4.66666667 -8 6 C-9.89470816 6.0685495 -11.7916834 6.08480372 -13.6875 6.0625 C-14.68136719 6.05347656 -15.67523438 6.04445313 -16.69921875 6.03515625 C-17.83810547 6.01775391 -17.83810547 6.01775391 -19 6 C-18.67 5.34 -18.34 4.68 -18 4 C-17.443125 4.04640625 -16.88625 4.0928125 -16.3125 4.140625 C-10.8366533 4.39961775 -7.29366561 3.59638035 -2.53125 0.875 C-1 0 -1 0 0 0 Z " fill="#2D2A25" transform="translate(234,368)"/>
<path d="M0 0 C0.66 0 1.32 0 2 0 C2.98248524 4.0527516 3.08159574 7.83861737 3 12 C2.34 11.34 1.68 10.68 1 10 C0.87625 10.928125 0.7525 11.85625 0.625 12.8125 C0 16 0 16 -2 19 C-2.24794402 12.4294834 -1.32388229 6.43028541 0 0 Z " fill="#B2B1AC" transform="translate(437,288)"/>
<path d="M0 0 C0.99 0.33 1.98 0.66 3 1 C2.54625 1.5775 2.0925 2.155 1.625 2.75 C-0.01170424 4.86299509 -0.01170424 4.86299509 -0.875 6.90625 C-2.16288806 9.30315278 -3.66910614 10.86654665 -5.625 12.75 C-6.57246094 13.67039062 -6.57246094 13.67039062 -7.5390625 14.609375 C-8.02117187 15.06828125 -8.50328125 15.5271875 -9 16 C-9 9.92526007 -3.77627951 4.47559053 0 0 Z " fill="#25211E" transform="translate(260,259)"/>
<path d="M0 0 C2.31 0.33 4.62 0.66 7 1 C7 4 7 4 5.625 5.6875 C4 7 4 7 2 7 C1.34 8.32 0.68 9.64 0 11 C-0.33 9.68 -0.66 8.36 -1 7 C-0.34 7 0.32 7 1 7 C0.67 4.69 0.34 2.38 0 0 Z " fill="#E1DBD3" transform="translate(193,257)"/>
<path d="M0 0 C0.66 0.33 1.32 0.66 2 1 C2 5.95 2 10.9 2 16 C0.66666667 16 -0.66666667 16 -2 16 C-1.43373374 11.30807954 -0.77701973 6.66211839 0 2 C0 1.34 0 0.68 0 0 Z " fill="#E8E4DD" transform="translate(437,296)"/>
<path d="M0 0 C2.00773956 2.00773956 2.99392854 3.36873617 4 6 C3.625 8.25 3.625 8.25 3 10 C2.01 10 1.02 10 0 10 C-0.19412181 8.52168779 -0.38012131 7.04230684 -0.5625 5.5625 C-0.66691406 4.73878906 -0.77132812 3.91507812 -0.87890625 3.06640625 C-0.91886719 2.38449219 -0.95882812 1.70257813 -1 1 C-0.67 0.67 -0.34 0.34 0 0 Z " fill="#35332F" transform="translate(188,103)"/>
<path d="M0 0 C0.33 0.66 0.66 1.32 1 2 C0.34 2.66 -0.32 3.32 -1 4 C-3.3828125 3.9765625 -3.3828125 3.9765625 -6.125 3.625 C-7.03507812 3.51414062 -7.94515625 3.40328125 -8.8828125 3.2890625 C-9.58148438 3.19367188 -10.28015625 3.09828125 -11 3 C-11 2.34 -11 1.68 -11 1 C-7.26562152 0.12132271 -3.83225427 -0.08912219 0 0 Z " fill="#C0BCB9" transform="translate(366,322)"/>
<path d="M0 0 C1.03526844 3.31756479 1.03187431 6.10953974 0.75 9.5625 C0.68296875 10.51253906 0.6159375 11.46257812 0.546875 12.44140625 C-0.05649913 15.2643352 -0.77903396 16.22680937 -3 18 C-2.41509121 11.85845775 -1.45933748 5.99320151 0 0 Z " fill="#45403D" transform="translate(183,286)"/>
<path d="M0 0 C0.33 0.99 0.66 1.98 1 3 C4.00847418 4.22520264 4.00847418 4.22520264 7 5 C6.34 6.32 5.68 7.64 5 9 C4.34 9 3.68 9 3 9 C2.67 8.34 2.34 7.68 2 7 C1.34 7 0.68 7 0 7 C-1.125 2.25 -1.125 2.25 0 0 Z " fill="#EEE5DC" transform="translate(137,126)"/>
<path d="M0 0 C2.475 0.99 2.475 0.99 5 2 C4.67 6.29 4.34 10.58 4 15 C3.67 15 3.34 15 3 15 C2.92652344 14.00419922 2.92652344 14.00419922 2.8515625 12.98828125 C2.28874188 6.2887764 2.28874188 6.2887764 0 0 Z " fill="#191814" transform="translate(362,283)"/>
<path d="M0 0 C0.66 0.33 1.32 0.66 2 1 C1.74337755 2.44010481 1.46909179 3.8770687 1.1875 5.3125 C1.03667969 6.11300781 0.88585937 6.91351563 0.73046875 7.73828125 C-0.07572236 10.23445587 -1.02052002 11.32422106 -3 13 C-2.68817931 11.58318366 -2.37551263 10.16655349 -2.0625 8.75 C-1.88847656 7.96109375 -1.71445312 7.1721875 -1.53515625 6.359375 C-1.052444 4.23121297 -0.53836822 2.11467158 0 0 Z " fill="#DED5D0" transform="translate(508,266)"/>
<path d="M0 0 C3.12613393 2.96160056 5.04783565 5.09567131 7 9 C4.36 7.68 1.72 6.36 -1 5 C-0.67 3.35 -0.34 1.7 0 0 Z " fill="#D3CDC2" transform="translate(132,116)"/>
<path d="M0 0 C0.33 0 0.66 0 1 0 C1.33 3.3 1.66 6.6 2 10 C-0.475 9.01 -0.475 9.01 -3 8 C-2.37240135 5.07120629 -1.41377341 2.63904371 0 0 Z " fill="#DBD4CC" transform="translate(181,85)"/>
<path d="M0 0 C0.66 0.33 1.32 0.66 2 1 C-3.75 6 -3.75 6 -6 6 C-6.33 6.66 -6.66 7.32 -7 8 C-7.66 7.34 -8.32 6.68 -9 6 C-7.68 5.67 -6.36 5.34 -5 5 C-5 4.34 -5 3.68 -5 3 C-2.625 1.3125 -2.625 1.3125 0 0 Z " fill="#C6C1BC" transform="translate(173,205)"/>
<path d="M0 0 C0.95465783 2.16967689 1.14401212 3.56328793 0.3984375 5.82421875 C-0.35870385 7.5684743 -1.17609198 9.28627131 -2 11 C-2.95465783 8.83032311 -3.14401212 7.43671207 -2.3984375 5.17578125 C-1.64129615 3.4315257 -0.82390802 1.71372869 0 0 Z " fill="#DDD5CF" transform="translate(518,243)"/>
<path d="M0 0 C3.71599191 -0.20086443 4.77208445 -0.1519437 8 2 C7.67 3.32 7.34 4.64 7 6 C4.56070254 4.07423885 2.19909405 2.19909405 0 0 Z " fill="#D8D3CB" transform="translate(370,262)"/>
<path d="M0 0 C1 3 1 3 -0.4375 6.1875 C-1.2109375 7.5796875 -1.2109375 7.5796875 -2 9 C-2.33 9 -2.66 9 -3 9 C-3 7.02 -3 5.04 -3 3 C-2.34 3 -1.68 3 -1 3 C-0.67 2.01 -0.34 1.02 0 0 Z " fill="#DDD6D1" transform="translate(513,257)"/>
<path d="M0 0 C1.65 0 3.3 0 5 0 C4.34 2.31 3.68 4.62 3 7 C2.67 5.68 2.34 4.36 2 3 C1.34 3 0.68 3 0 3 C0 2.01 0 1.02 0 0 Z " fill="#DFDBD4" transform="translate(217,69)"/>
<path d="M0 0 C4.42857143 5.14285714 4.42857143 5.14285714 5 9 C3.68 8.67 2.36 8.34 1 8 C1 6.68 1 5.36 1 4 C0.34 3.34 -0.32 2.68 -1 2 C-0.67 1.34 -0.34 0.68 0 0 Z " fill="#373432" transform="translate(300,268)"/>
<path d="M0 0 C1.65 1.65 3.3 3.3 5 5 C4.01 5 3.02 5 2 5 C1.67 5.66 1.34 6.32 1 7 C0 6 0 6 -0.0625 2.9375 C-0.041875 1.968125 -0.02125 0.99875 0 0 Z " fill="#36312F" transform="translate(122,134)"/>
<path d="M0 0 C-0.66 1.32 -1.32 2.64 -2 4 C-2.66 4 -3.32 4 -4 4 C-4 4.66 -4 5.32 -4 6 C-4.99 5.67 -5.98 5.34 -7 5 C-2.25 0 -2.25 0 0 0 Z " fill="#E6DAD5" transform="translate(493,443)"/>
<path d="M0 0 C0.68707555 2.49064888 1 4.37886292 1 7 C-1 8.6875 -1 8.6875 -3 10 C-2.69201674 8.51988629 -2.378482 7.04092675 -2.0625 5.5625 C-1.88847656 4.73878906 -1.71445312 3.91507812 -1.53515625 3.06640625 C-1 1 -1 1 0 0 Z " fill="#ACA7A3" transform="translate(306,366)"/>
<path d="M0 0 C1.5625 1.8125 1.5625 1.8125 3 4 C2.67 4.99 2.34 5.98 2 7 C-0.2477975 4.94766315 -1.0022242 3.99332739 -2 1 C-1.34 0.67 -0.68 0.34 0 0 Z " fill="#CFC9C0" transform="translate(146,133)"/>
</svg>
